<svg width="16" height="17" viewBox="0 0 16 17" fill="none" xmlns="http://www.w3.org/2000/svg">
<g clip-path="url(#clip0_14_28)">
<path d="M3.16499 5.43962H2.29289V4.57006H3.16499V5.43962ZM3.16499 7.17875H2.29289V6.30919H3.16499V7.17875ZM2.29289 8.04832H3.16499V8.91788H2.29289V8.04832ZM1.4208 14.1353H8.39754V15.0048H0.548706V1.0918H8.14545L11.8859 4.82142V9.78745H11.0138V5.43962H7.52545V1.96136H1.4208V14.1353ZM8.39754 4.57006H10.3938L8.39754 2.57957V4.57006ZM6.65336 5.43962H4.03708V4.57006H6.65336V5.43962ZM6.65336 7.17875H4.03708V6.30919H6.65336V7.17875ZM4.03708 8.04832H6.65336V8.91788H4.03708V8.04832Z" fill="#C8C8C8"/>
<ellipse cx="9.99121" cy="12.3706" rx="4.33484" ry="4.32228" fill="#C8C8C8"/>
<path d="M12.1155 12.0202L10.3466 12.0163L10.3466 10.2563L9.63974 10.2524L9.63974 12.0202L7.86684 12.0202L7.86684 12.721L9.63974 12.721V14.4888L10.3466 14.4927L10.3466 12.7249L12.1155 12.721L12.1155 12.0202Z" fill="#231F20"/>
</g>
<defs>
<clipPath id="clip0_14_28">
<rect width="15" height="16" fill="white" transform="translate(0.655579 0.994141)"/>
</clipPath>
</defs>
</svg>
