<svg width="14" height="16" viewBox="0 0 14 16" fill="none" xmlns="http://www.w3.org/2000/svg">
<g clip-path="url(#clip0_14_76)">
<path d="M3.30648 4.76017H2.49253V3.94495H3.30648V4.76017ZM3.30648 6.3906H2.49253V5.57539H3.30648V6.3906ZM2.49253 7.20582H3.30648V8.02104H2.49253V7.20582ZM1.67858 12.9123H8.19021V13.7276H0.864624V0.684082H7.95492L11.446 4.1806V8.83626H10.6321V4.76017H7.37625V1.4993H1.67858V12.9123ZM8.19021 3.94495H10.0534L8.19021 2.07887V3.94495ZM6.5623 4.76017H4.12044V3.94495H6.5623V4.76017ZM6.5623 6.3906H4.12044V5.57539H6.5623V6.3906ZM4.12044 7.20582H6.5623V8.02104H4.12044V7.20582Z" fill="black"/>
<ellipse cx="9.67763" cy="11.2582" rx="4.04585" ry="4.05213" fill="black"/>
<path d="M11.6604 10.9298L10.0093 10.9261L10.0093 9.27614L9.34961 9.27249V10.9298L7.69491 10.9298L7.69491 11.5868L9.34961 11.5868L9.34961 13.2441L10.0093 13.2478L10.0093 11.5905L11.6604 11.5868L11.6604 10.9298Z" fill="#FDFDFD"/>
</g>
<defs>
<clipPath id="clip0_14_76">
<rect width="14" height="15" fill="white" transform="translate(0 0.576172)"/>
</clipPath>
</defs>
</svg>
