<svg width="13" height="13" viewBox="0 0 13 13" fill="none" xmlns="http://www.w3.org/2000/svg">
<circle cx="6.77869" cy="6.49988" r="6.1366" fill="#231F20"/>
<g clip-path="url(#clip0_14_124)">
<path d="M4.60181 4.25244L4.90789 8.92717C4.92243 9.19728 5.12827 9.39464 5.39762 9.39464H8.21359C8.48402 9.39464 8.68603 9.19728 8.70333 8.92717L9.00941 4.25244" stroke="#F5F5F5" stroke-width="0.5" stroke-linecap="round" stroke-linejoin="round"/>
<path d="M4.11206 4.25244H9.49913H4.11206Z" fill="#F5F5F5"/>
<path d="M4.11206 4.25244H9.49913" stroke="#F5F5F5" stroke-width="0.5" stroke-miterlimit="10" stroke-linecap="round"/>
<path d="M5.82605 4.25282V3.66848C5.82591 3.6224 5.83531 3.57675 5.85372 3.53415C5.87213 3.49155 5.89918 3.45284 5.93331 3.42026C5.96745 3.38768 6.00799 3.36186 6.05262 3.34429C6.09725 3.32671 6.14507 3.31774 6.19335 3.31787H7.41768C7.46596 3.31774 7.51378 3.32671 7.55841 3.34429C7.60303 3.36186 7.64358 3.38768 7.67772 3.42026C7.71185 3.45284 7.7389 3.49155 7.75731 3.53415C7.77572 3.57675 7.78512 3.6224 7.78498 3.66848V4.25282M6.80551 5.18776V8.46008M5.70361 5.18776L5.82605 8.46008M7.90741 5.18776L7.78498 8.46008" stroke="#F5F5F5" stroke-width="0.5" stroke-linecap="round" stroke-linejoin="round"/>
</g>
<defs>
<clipPath id="clip0_14_124">
<rect width="6" height="7" fill="white" transform="translate(3.77869 2.99951)"/>
</clipPath>
</defs>
</svg>
