<svg width="15" height="12" viewBox="0 0 15 12" fill="none" xmlns="http://www.w3.org/2000/svg">
<path d="M14.2493 10.9989H13.3118V5.40416C13.3118 5.26989 13.2847 5.13709 13.2322 5.01422C13.1798 4.89135 13.1031 4.78109 13.0071 4.69045L8.31964 0.293276C8.14682 0.130065 7.92107 0.0395508 7.68683 0.0395508C7.45259 0.0395508 7.22684 0.130065 7.05402 0.293276L2.36652 4.69045C2.27054 4.78109 2.19389 4.89135 2.14144 5.01422C2.08898 5.13709 2.06187 5.26989 2.06183 5.40416V10.9989H1.12433C1.00001 10.9989 0.88078 11.0499 0.792872 11.1406C0.704965 11.2314 0.655579 11.3545 0.655579 11.4828C0.655579 11.6111 0.704965 11.7342 0.792872 11.8249C0.88078 11.9157 1.00001 11.9667 1.12433 11.9667H14.2493C14.3736 11.9667 14.4929 11.9157 14.5808 11.8249C14.6687 11.7342 14.7181 11.6111 14.7181 11.4828C14.7181 11.3545 14.6687 11.2314 14.5808 11.1406C14.4929 11.0499 14.3736 10.9989 14.2493 10.9989ZM2.99933 5.40416L7.68683 1.00699L12.3743 5.40416V10.9989H9.56183V8.0957C9.56183 7.83903 9.46306 7.59289 9.28724 7.4114C9.11143 7.22991 8.87297 7.12795 8.62433 7.12795H6.74933C6.50069 7.12795 6.26223 7.22991 6.08642 7.4114C5.9106 7.59289 5.81183 7.83903 5.81183 8.0957V10.9989H2.99933V5.40416ZM8.62433 10.9989H6.74933V8.0957H8.62433V10.9989Z" fill="#C8C8C8"/>
</svg>
