<svg width="16" height="14" viewBox="0 0 16 14" fill="none" xmlns="http://www.w3.org/2000/svg">
<path d="M2.30625 11.8594H1.46875C1.31687 11.8594 1.17187 11.9217 1.06547 12.0315C0.959175 12.1412 0.9 12.2894 0.9 12.4432C0.9 12.5971 0.959175 12.7452 1.06547 12.855C1.17187 12.9648 1.31687 13.0271 1.46875 13.0271H14.5938C14.7456 13.0271 14.8906 12.9648 14.997 12.855C15.1033 12.7452 15.1625 12.5971 15.1625 12.4432C15.1625 12.2894 15.1033 12.1412 14.997 12.0315C14.8906 11.9217 14.7456 11.8594 14.5938 11.8594H13.7563V6.36461V6.36458C13.7562 6.21689 13.7264 6.07075 13.6686 5.93541C13.6108 5.80006 13.5263 5.67838 13.4202 5.5782L13.42 5.57797L8.73272 1.18102C8.73269 1.18099 8.73265 1.18096 8.73262 1.18092C8.54155 1.00053 8.29139 0.9 8.03125 0.9C7.77111 0.9 7.52095 1.00053 7.32988 1.18092C7.32985 1.18096 7.32981 1.18099 7.32978 1.18102L2.64252 5.57797L2.64228 5.5782C2.5362 5.67838 2.45167 5.80006 2.39389 5.93541C2.33611 6.07075 2.3063 6.21689 2.30625 6.36458V6.36461V11.8594ZM3.44375 11.8594V6.40792L8.03125 2.10455L12.6187 6.40792V11.8594H10.0063V9.05614C10.0063 8.77397 9.89769 8.50273 9.70349 8.30227C9.50918 8.10169 9.24496 7.9884 8.96875 7.9884H7.09375C6.81754 7.9884 6.55332 8.10169 6.35901 8.30227C6.16481 8.50273 6.05625 8.77397 6.05625 9.05614V11.8594H3.44375ZM7.19375 11.8594V9.15615H8.86875V11.8594H7.19375Z" fill="black" stroke="black" stroke-width="0.2"/>
</svg>
