<svg width="14" height="15" viewBox="0 0 14 15" fill="none" xmlns="http://www.w3.org/2000/svg">
<path d="M13.6507 10.9297L9.84308 14.7441L8.00421 12.8984L8.61945 12.2832L9.84308 13.5L13.0355 10.3145L13.6507 10.9297ZM6.78058 5.37207H4.15558V4.49707H6.78058V5.37207ZM6.78058 7.12207H4.15558V6.24707H6.78058V7.12207ZM4.15558 7.99707H6.78058V8.87207H4.15558V7.99707ZM3.28058 5.37207H2.40558V4.49707H3.28058V5.37207ZM3.28058 7.12207H2.40558V6.24707H3.28058V7.12207ZM2.40558 7.99707H3.28058V8.87207H2.40558V7.99707ZM7.65558 5.37207V1.87207H1.53058V14.1221H7.65558V14.9971H0.655579V0.99707H8.27765L12.0306 4.75V9.74707L11.1556 10.6221V5.37207H7.65558ZM8.53058 4.49707H10.5335L8.53058 2.49414V4.49707Z" fill="#C8C8C8"/>
</svg>
