<svg width="15" height="16" viewBox="0 0 15 16" fill="none" xmlns="http://www.w3.org/2000/svg">
<path d="M14.0659 11.0033L14.1365 10.9326L14.0658 10.8619L13.4506 10.2467L13.38 10.176L13.3092 10.2466L10.1874 13.3618L9.03438 12.2152L8.96367 12.1449L8.89316 12.2154L8.27792 12.8307L8.20734 12.9012L8.27779 12.9719L10.1167 14.8176L10.1874 14.8887L10.2583 14.8177L14.0659 11.0033ZM7.125 5.475H7.225V5.375V4.5V4.4H7.125H4.5H4.4V4.5V5.375V5.475H4.5H7.125ZM7.125 7.225H7.225V7.125V6.25V6.15H7.125H4.5H4.4V6.25V7.125V7.225H4.5H7.125ZM4.5 7.9H4.4V8V8.875V8.975H4.5H7.125H7.225V8.875V8V7.9H7.125H4.5ZM3.625 5.475H3.725V5.375V4.5V4.4H3.625H2.75H2.65V4.5V5.375V5.475H2.75H3.625ZM3.625 7.225H3.725V7.125V6.25V6.15H3.625H2.75H2.65V6.25V7.125V7.225H2.75H3.625ZM2.75 7.9H2.65V8V8.875V8.975H2.75H3.625H3.725V8.875V8V7.9H3.625H2.75ZM7.9 5.375V5.475H8H11.4V10.625V10.8664L11.5707 10.6957L12.4457 9.82071L12.475 9.79142V9.75V4.75293V4.71151L12.4457 4.68222L8.69278 0.929289L8.66349 0.9H8.62207H1H0.9V1V15V15.1H1H8H8.1V15V14.125V14.025H8H1.975V1.975H7.9V5.375ZM8.975 2.73849L10.6365 4.4H8.975V2.73849Z" fill="black" stroke="black" stroke-width="0.2"/>
</svg>
