<svg xmlns="http://www.w3.org/2000/svg" width="16" height="16" viewBox="0 0 16 16" fill="none">
<path d="M2.16667 15.5C1.70833 15.5 1.31583 15.3369 0.989167 15.0108C0.663055 14.6842 0.5 14.2917 0.5 13.8333V2.16667C0.5 1.70833 0.663055 1.31583 0.989167 0.989167C1.31583 0.663055 1.70833 0.5 2.16667 0.5H7.16667C7.40278 0.5 7.60083 0.579722 7.76083 0.739167C7.92028 0.899167 8 1.09722 8 1.33333C8 1.56944 7.92028 1.76722 7.76083 1.92667C7.60083 2.08667 7.40278 2.16667 7.16667 2.16667H2.16667V13.8333H13.8333V8.83333C13.8333 8.59722 13.9133 8.39917 14.0733 8.23917C14.2328 8.07972 14.4306 8 14.6667 8C14.9028 8 15.1006 8.07972 15.26 8.23917C15.42 8.39917 15.5 8.59722 15.5 8.83333V13.8333C15.5 14.2917 15.3369 14.6842 15.0108 15.0108C14.6842 15.3369 14.2917 15.5 13.8333 15.5H2.16667ZM5.5 10.5C5.34722 10.3472 5.27083 10.1528 5.27083 9.91667C5.27083 9.68056 5.34722 9.48611 5.5 9.33333L12.6667 2.16667H10.5C10.2639 2.16667 10.0661 2.08667 9.90667 1.92667C9.74667 1.76722 9.66667 1.56944 9.66667 1.33333C9.66667 1.09722 9.74667 0.899167 9.90667 0.739167C10.0661 0.579722 10.2639 0.5 10.5 0.5H14.6667C14.9028 0.5 15.1006 0.579722 15.26 0.739167C15.42 0.899167 15.5 1.09722 15.5 1.33333V5.5C15.5 5.73611 15.42 5.93389 15.26 6.09333C15.1006 6.25333 14.9028 6.33333 14.6667 6.33333C14.4306 6.33333 14.2328 6.25333 14.0733 6.09333C13.9133 5.93389 13.8333 5.73611 13.8333 5.5V3.33333L6.64583 10.5208C6.49306 10.6736 6.30556 10.75 6.08333 10.75C5.86111 10.75 5.66667 10.6667 5.5 10.5Z" fill="#df2028"/>
</svg>