<svg width="12" height="11" viewBox="0 0 12 11" fill="none" xmlns="http://www.w3.org/2000/svg">
<path d="M11.0269 2.7073V9.40978C11.0269 9.71697 10.9176 9.98005 10.699 10.199C10.48 10.4176 10.217 10.5269 9.90978 10.5269H2.09022C1.78303 10.5269 1.51995 10.4176 1.30101 10.199C1.08243 9.98005 0.973145 9.71697 0.973145 9.40978V1.59022C0.973145 1.28303 1.08243 1.01995 1.30101 0.801007C1.51995 0.582432 1.78303 0.473145 2.09022 0.473145H8.7927L11.0269 2.7073ZM9.90978 3.18206L8.31794 1.59022H2.09022V9.40978H9.90978V3.18206ZM6 8.85124C6.46545 8.85124 6.86108 8.68833 7.1869 8.36251C7.51271 8.0367 7.67562 7.64107 7.67562 7.17562C7.67562 6.71017 7.51271 6.31454 7.1869 5.98872C6.86108 5.66291 6.46545 5.5 6 5.5C5.53455 5.5 5.13892 5.66291 4.8131 5.98872C4.48729 6.31454 4.32438 6.71017 4.32438 7.17562C4.32438 7.64107 4.48729 8.0367 4.8131 8.36251C5.13892 8.68833 5.53455 8.85124 6 8.85124ZM2.64876 4.38292H7.67562V2.14876H2.64876V4.38292ZM2.09022 3.18206V9.40978V1.59022V3.18206Z" fill="white"/>
</svg>
