<svg width="16" height="16" viewBox="0 0 16 16" fill="none" xmlns="http://www.w3.org/2000/svg">
<path d="M14.9148 9.93993L13.799 8.9859C13.8518 8.66222 13.879 8.33171 13.879 8.00121C13.879 7.67071 13.8518 7.34021 13.799 7.01652L14.9148 6.0625C14.999 5.99045 15.0592 5.89448 15.0875 5.78736C15.1159 5.68024 15.1109 5.56705 15.0733 5.46283L15.0579 5.41853C14.7507 4.55995 14.2907 3.76404 13.7002 3.06925L13.6695 3.03347C13.5979 2.94923 13.5024 2.88867 13.3956 2.85978C13.2889 2.83089 13.1759 2.83502 13.0715 2.87163L11.6865 3.36397C11.1754 2.94488 10.6047 2.61438 9.98799 2.38269L9.72052 0.934616C9.70034 0.825657 9.64749 0.725416 9.56898 0.647213C9.49047 0.569009 9.39002 0.516543 9.28099 0.496787L9.23499 0.488269C8.34741 0.328129 7.41382 0.328129 6.52624 0.488269L6.48024 0.496787C6.37121 0.516543 6.27076 0.569009 6.19225 0.647213C6.11374 0.725416 6.06089 0.825657 6.04071 0.934616L5.77154 2.3895C5.15975 2.62124 4.59003 2.95157 4.08496 3.36738L2.6897 2.87163C2.58538 2.83473 2.4723 2.83045 2.36549 2.85936C2.25868 2.88827 2.1632 2.949 2.09173 3.03347L2.06106 3.06925C1.47118 3.76453 1.01126 4.56031 0.703283 5.41853L0.687951 5.46283C0.611288 5.67578 0.674322 5.91428 0.846387 6.0625L1.97588 7.02675C1.92307 7.34703 1.89752 7.67412 1.89752 7.99951C1.89752 8.3266 1.92307 8.6537 1.97588 8.97227L0.846387 9.93652C0.762221 10.0086 0.701982 10.1045 0.673681 10.2117C0.64538 10.3188 0.650357 10.432 0.687951 10.5362L0.703283 10.5805C1.01164 11.4391 1.46821 12.2313 2.06106 12.9298L2.09173 12.9655C2.16337 13.0498 2.25886 13.1103 2.36561 13.1392C2.47235 13.1681 2.58535 13.164 2.6897 13.1274L4.08496 12.6316C4.59264 13.049 5.15994 13.3795 5.77154 13.6095L6.04071 15.0644C6.06089 15.1734 6.11374 15.2736 6.19225 15.3518C6.27076 15.43 6.37121 15.4825 6.48024 15.5022L6.52624 15.5108C7.42198 15.6717 8.33925 15.6717 9.23499 15.5108L9.28099 15.5022C9.39002 15.4825 9.49047 15.43 9.56898 15.3518C9.64749 15.2736 9.70034 15.1734 9.72052 15.0644L9.98799 13.6163C10.6044 13.3852 11.1784 13.0537 11.6865 12.635L13.0715 13.1274C13.1759 13.1643 13.2889 13.1686 13.3957 13.1397C13.5025 13.1108 13.598 13.05 13.6695 12.9655L13.7002 12.9298C14.293 12.2296 14.7496 11.4391 15.0579 10.5805L15.0733 10.5362C15.1499 10.3266 15.0869 10.0881 14.9148 9.93993ZM12.5894 7.21755C12.632 7.4748 12.6541 7.73886 12.6541 8.00292C12.6541 8.26698 12.632 8.53104 12.5894 8.78828L12.477 9.47143L13.7496 10.56C13.5566 11.0045 13.3131 11.4252 13.0238 11.8139L11.4429 11.2534L10.9079 11.6929C10.5008 12.0269 10.0476 12.2892 9.55697 12.4732L8.9079 12.7168L8.60295 14.3693C8.1218 14.4238 7.63603 14.4238 7.15487 14.3693L6.84993 12.7134L6.20596 12.4664C5.72043 12.2824 5.26897 12.02 4.86522 11.6878L4.33028 11.2466L2.7391 11.8122C2.44949 11.4221 2.20758 11.0013 2.01336 10.5583L3.29959 9.45951L3.18886 8.77806C3.14797 8.52422 3.12582 8.26187 3.12582 8.00292C3.12582 7.74226 3.14627 7.48161 3.18886 7.22777L3.29959 6.54633L2.01336 5.44749C2.20587 5.00285 2.44949 4.58376 2.7391 4.19363L4.33028 4.75923L4.86522 4.318C5.26897 3.98579 5.72043 3.72343 6.20596 3.53944L6.85163 3.29583L7.15658 1.63991C7.63529 1.5854 8.12423 1.5854 8.60465 1.63991L8.9096 3.29242L9.55868 3.53604C10.0476 3.72003 10.5025 3.98238 10.9096 4.31629L11.4446 4.75583L13.0255 4.19534C13.3151 4.58546 13.5571 5.00626 13.7513 5.4492L12.4787 6.53781L12.5894 7.21755ZM7.88232 4.83419C6.2264 4.83419 4.88396 6.17664 4.88396 7.83256C4.88396 9.48847 6.2264 10.8309 7.88232 10.8309C9.53823 10.8309 10.8807 9.48847 10.8807 7.83256C10.8807 6.17664 9.53823 4.83419 7.88232 4.83419ZM9.23158 9.18182C9.05461 9.3593 8.8443 9.50003 8.61274 9.59593C8.38118 9.69183 8.13295 9.741 7.88232 9.74061C7.37294 9.74061 6.89422 9.54128 6.53306 9.18182C6.35558 9.00485 6.21484 8.79454 6.11895 8.56298C6.02305 8.33142 5.97388 8.08319 5.97427 7.83256C5.97427 7.32317 6.17359 6.84446 6.53306 6.48329C6.89422 6.12213 7.37294 5.92451 7.88232 5.92451C8.3917 5.92451 8.87042 6.12213 9.23158 6.48329C9.40906 6.66026 9.54979 6.87057 9.64569 7.10213C9.74159 7.33369 9.79076 7.58192 9.79037 7.83256C9.79037 8.34194 9.59105 8.82065 9.23158 9.18182Z" fill="#C8C8C8"/>
</svg>
